<svg xmlns="http://www.w3.org/2000/svg" height="777" width="960.0" font-size="16" font-family="sans-serif" stroke-width="2">
<g transform="translate(10.0 0)">
<g fill="hsl(0, 100%, 40%)">
<text y="22">day 01.day 01 P1</text>
<text y="22" x="382.42338403062035" text-anchor="end">1.47 ms</text>
</g>
<g>
<title>1.47 ms ±  85 μs</title>
<rect y="28" rx="5" height="22" width="382.42338403062035" fill="hsl(0, 100%, 80%)" stroke="hsl(0, 100%, 55%)" />
<g stroke="hsl(0, 100%, 40%)"><line x1="360.39159232219214" x2="404.45517573904857" y1="39" y2="39" />
<line x1="360.39159232219214" x2="360.39159232219214" y1="33" y2="45" />
<line x1="404.45517573904857" x2="404.45517573904857" y1="33" y2="45" />
</g>
</g>
<g fill="hsl(25, 100%, 40%)">
<text y="77">day 01.day 01 P2</text>
<text y="77" x="388.66693875604653" text-anchor="end">1.50 ms</text>
</g>
<g>
<title>1.50 ms ± 109 μs</title>
<rect y="83" rx="5" height="22" width="388.66693875604653" fill="hsl(25, 100%, 80%)" stroke="hsl(25, 100%, 55%)" />
<g stroke="hsl(25, 100%, 40%)"><line x1="360.26924295603214" x2="417.0646345560609" y1="94" y2="94" />
<line x1="360.26924295603214" x2="360.26924295603214" y1="88" y2="100" />
<line x1="417.0646345560609" x2="417.0646345560609" y1="88" y2="100" />
</g>
</g>
<text fill="hsl(51, 100%, 40%)" y="132">day 02.day 02 P1 13.2 μs</text>
<g>
<title>13.2 μs ± 1.0 μs</title>
<rect y="138" rx="5" height="22" width="3.420620252509382" fill="hsl(51, 100%, 80%)" stroke="hsl(51, 100%, 55%)" />
<g stroke="hsl(51, 100%, 40%)"><line x1="3.1598136300957584" x2="3.6814268749230052" y1="149" y2="149" />
<line x1="3.1598136300957584" x2="3.1598136300957584" y1="143" y2="155" />
<line x1="3.6814268749230052" x2="3.6814268749230052" y1="143" y2="155" />
</g>
</g>
<text fill="hsl(77, 100%, 40%)" y="187">day 02.day 02 P2 36.2 μs</text>
<g>
<title>36.2 μs ± 1.5 μs</title>
<rect y="193" rx="5" height="22" width="9.40869595062442" fill="hsl(77, 100%, 80%)" stroke="hsl(77, 100%, 55%)" />
<g stroke="hsl(77, 100%, 40%)"><line x1="9.008362711544901" x2="9.809029189703939" y1="204" y2="204" />
<line x1="9.008362711544901" x2="9.008362711544901" y1="198" y2="210" />
<line x1="9.809029189703939" x2="9.809029189703939" y1="198" y2="210" />
</g>
</g>
<g fill="hsl(102, 100%, 40%)">
<text y="242">day 03.day 03 P1</text>
<text y="242" x="311.8726846022828" text-anchor="end">1.20 ms</text>
</g>
<g>
<title>1.20 ms ± 118 μs</title>
<rect y="248" rx="5" height="22" width="311.8726846022828" fill="hsl(102, 100%, 80%)" stroke="hsl(102, 100%, 55%)" />
<g stroke="hsl(102, 100%, 40%)"><line x1="281.35867886496317" x2="342.3866903396024" y1="259" y2="259" />
<line x1="281.35867886496317" x2="281.35867886496317" y1="253" y2="265" />
<line x1="342.3866903396024" x2="342.3866903396024" y1="253" y2="265" />
</g>
</g>
<g fill="hsl(128, 100%, 40%)">
<text y="297">day 03.day 03 P2</text>
<text y="297" x="404.8632457488002" text-anchor="end">1.56 ms</text>
</g>
<g>
<title>1.56 ms ±  89 μs</title>
<rect y="303" rx="5" height="22" width="404.8632457488002" fill="hsl(128, 100%, 80%)" stroke="hsl(128, 100%, 55%)" />
<g stroke="hsl(128, 100%, 40%)"><line x1="381.69903251019394" x2="428.0274589874064" y1="314" y2="314" />
<line x1="381.69903251019394" x2="381.69903251019394" y1="308" y2="320" />
<line x1="428.0274589874064" x2="428.0274589874064" y1="308" y2="320" />
</g>
</g>
<g fill="hsl(154, 100%, 40%)">
<text y="352">day 04.day 04 P1</text>
<text y="352" x="893.2890165836875" text-anchor="end">3.44 ms</text>
</g>
<g>
<title>3.44 ms ± 180 μs</title>
<rect y="358" rx="5" height="22" width="893.2890165836875" fill="hsl(154, 100%, 80%)" stroke="hsl(154, 100%, 55%)" />
<g stroke="hsl(154, 100%, 40%)"><line x1="846.578033167375" x2="940.0" y1="369" y2="369" />
<line x1="846.578033167375" x2="846.578033167375" y1="363" y2="375" />
<line x1="940.0" x2="940.0" y1="363" y2="375" />
</g>
</g>
<g fill="hsl(180, 100%, 40%)">
<text y="407">day 04.day 04 P2</text>
<text y="407" x="811.3779247678939" text-anchor="end">3.13 ms</text>
</g>
<g>
<title>3.13 ms ± 120 μs</title>
<rect y="413" rx="5" height="22" width="811.3779247678939" fill="hsl(180, 100%, 80%)" stroke="hsl(180, 100%, 55%)" />
<g stroke="hsl(180, 100%, 40%)"><line x1="780.2566681854688" x2="842.499181350319" y1="424" y2="424" />
<line x1="780.2566681854688" x2="780.2566681854688" y1="418" y2="430" />
<line x1="842.499181350319" x2="842.499181350319" y1="418" y2="430" />
</g>
</g>
<g fill="hsl(205, 100%, 40%)">
<text y="462">day 05.day 05 P1</text>
<text y="462" x="677.5089109423765" text-anchor="end">2.61 ms</text>
</g>
<g>
<title>2.61 ms ± 179 μs</title>
<rect y="468" rx="5" height="22" width="677.5089109423765" fill="hsl(205, 100%, 80%)" stroke="hsl(205, 100%, 55%)" />
<g stroke="hsl(205, 100%, 40%)"><line x1="631.1442253605829" x2="723.87359652417" y1="479" y2="479" />
<line x1="631.1442253605829" x2="631.1442253605829" y1="473" y2="485" />
<line x1="723.87359652417" x2="723.87359652417" y1="473" y2="485" />
</g>
</g>
<g fill="hsl(231, 100%, 40%)">
<text y="517">day 05.day 05 P2</text>
<text y="517" x="428.77551526926305" text-anchor="end">1.65 ms</text>
</g>
<g>
<title>1.65 ms ± 109 μs</title>
<rect y="523" rx="5" height="22" width="428.77551526926305" fill="hsl(231, 100%, 80%)" stroke="hsl(231, 100%, 55%)" />
<g stroke="hsl(231, 100%, 40%)"><line x1="400.3701797715849" x2="457.1808507669412" y1="534" y2="534" />
<line x1="400.3701797715849" x2="400.3701797715849" y1="528" y2="540" />
<line x1="457.1808507669412" x2="457.1808507669412" y1="528" y2="540" />
</g>
</g>
<text fill="hsl(257, 100%, 40%)" y="572">day 06.day 06 P1 145  μs</text>
<g>
<title>145  μs ±  13 μs</title>
<rect y="578" rx="5" height="22" width="37.6526493888806" fill="hsl(257, 100%, 80%)" stroke="hsl(257, 100%, 55%)" />
<g stroke="hsl(257, 100%, 40%)"><line x1="34.279950498729974" x2="41.02534827903122" y1="589" y2="589" />
<line x1="34.279950498729974" x2="34.279950498729974" y1="583" y2="595" />
<line x1="41.02534827903122" x2="41.02534827903122" y1="583" y2="595" />
</g>
</g>
<g fill="hsl(282, 100%, 40%)">
<text y="627">day 06.day 06 P2</text>
<text y="627" x="298.86655925845895" text-anchor="end">1.15 ms</text>
</g>
<g>
<title>1.15 ms ±  84 μs</title>
<rect y="633" rx="5" height="22" width="298.86655925845895" fill="hsl(282, 100%, 80%)" stroke="hsl(282, 100%, 55%)" />
<g stroke="hsl(282, 100%, 40%)"><line x1="276.97217257640295" x2="320.76094594051494" y1="644" y2="644" />
<line x1="276.97217257640295" x2="276.97217257640295" y1="638" y2="650" />
<line x1="320.76094594051494" x2="320.76094594051494" y1="638" y2="650" />
</g>
</g>
<g fill="hsl(308, 100%, 40%)">
<text y="682">day 07.day 07 P1</text>
<text y="682" x="207.9315395673914" text-anchor="end">801  μs</text>
</g>
<g>
<title>801  μs ±  75 μs</title>
<rect y="688" rx="5" height="22" width="207.9315395673914" fill="hsl(308, 100%, 80%)" stroke="hsl(308, 100%, 55%)" />
<g stroke="hsl(308, 100%, 40%)"><line x1="188.47780710318125" x2="227.38527203160157" y1="699" y2="699" />
<line x1="188.47780710318125" x2="188.47780710318125" y1="693" y2="705" />
<line x1="227.38527203160157" x2="227.38527203160157" y1="693" y2="705" />
</g>
</g>
<g fill="hsl(334, 100%, 40%)">
<text y="737">day 07.day 07 P2</text>
<text y="737" x="207.2573467604776" text-anchor="end">799  μs</text>
</g>
<g>
<title>799  μs ±  45 μs</title>
<rect y="743" rx="5" height="22" width="207.2573467604776" fill="hsl(334, 100%, 80%)" stroke="hsl(334, 100%, 55%)" />
<g stroke="hsl(334, 100%, 40%)"><line x1="195.66829397045765" x2="218.84639955049752" y1="754" y2="754" />
<line x1="195.66829397045765" x2="195.66829397045765" y1="748" y2="760" />
<line x1="218.84639955049752" x2="218.84639955049752" y1="748" y2="760" />
</g>
</g>
</g>
</svg>
