<svg xmlns="http://www.w3.org/2000/svg" height="777" width="960.0" font-size="16" font-family="sans-serif" stroke-width="2">
<g transform="translate(10.0 0)">
<g fill="hsl(0, 100%, 40%)">
<text y="22">day 01.day 01 P1</text>
<text y="22" x="274.7961992384016" text-anchor="end">1.52 ms</text>
</g>
<g>
<title>1.52 ms ±  99 μs</title>
<rect y="28" rx="5" height="22" width="274.7961992384016" fill="hsl(0, 100%, 80%)" stroke="hsl(0, 100%, 55%)" />
<g stroke="hsl(0, 100%, 40%)"><line x1="256.8293062747328" x2="292.76309220207037" y1="39" y2="39" />
<line x1="256.8293062747328" x2="256.8293062747328" y1="33" y2="45" />
<line x1="292.76309220207037" x2="292.76309220207037" y1="33" y2="45" />
</g>
</g>
<g fill="hsl(25, 100%, 40%)">
<text y="77">day 01.day 01 P2</text>
<text y="77" x="277.82209267699284" text-anchor="end">1.53 ms</text>
</g>
<g>
<title>1.53 ms ±  71 μs</title>
<rect y="83" rx="5" height="22" width="277.82209267699284" fill="hsl(25, 100%, 80%)" stroke="hsl(25, 100%, 55%)" />
<g stroke="hsl(25, 100%, 40%)"><line x1="264.9432905917572" x2="290.7008947622285" y1="94" y2="94" />
<line x1="264.9432905917572" x2="264.9432905917572" y1="88" y2="100" />
<line x1="290.7008947622285" x2="290.7008947622285" y1="88" y2="100" />
</g>
</g>
<text fill="hsl(51, 100%, 40%)" y="132">day 02.day 02 P1 14.2 μs</text>
<g>
<title>14.2 μs ± 1.4 μs</title>
<rect y="138" rx="5" height="22" width="2.579113848162884" fill="hsl(51, 100%, 80%)" stroke="hsl(51, 100%, 55%)" />
<g stroke="hsl(51, 100%, 40%)"><line x1="2.3243763480682778" x2="2.83385134825749" y1="149" y2="149" />
<line x1="2.3243763480682778" x2="2.3243763480682778" y1="143" y2="155" />
<line x1="2.83385134825749" x2="2.83385134825749" y1="143" y2="155" />
</g>
</g>
<text fill="hsl(77, 100%, 40%)" y="187">day 02.day 02 P2 35.2 μs</text>
<g>
<title>35.2 μs ± 2.8 μs</title>
<rect y="193" rx="5" height="22" width="6.377847409350294" fill="hsl(77, 100%, 80%)" stroke="hsl(77, 100%, 55%)" />
<g stroke="hsl(77, 100%, 40%)"><line x1="5.872043869014459" x2="6.883650949686129" y1="204" y2="204" />
<line x1="5.872043869014459" x2="5.872043869014459" y1="198" y2="210" />
<line x1="6.883650949686129" x2="6.883650949686129" y1="198" y2="210" />
</g>
</g>
<g fill="hsl(102, 100%, 40%)">
<text y="242">day 03.day 03 P1</text>
<text y="242" x="218.1326309069856" text-anchor="end">1.20 ms</text>
</g>
<g>
<title>1.20 ms ±  86 μs</title>
<rect y="248" rx="5" height="22" width="218.1326309069856" fill="hsl(102, 100%, 80%)" stroke="hsl(102, 100%, 55%)" />
<g stroke="hsl(102, 100%, 40%)"><line x1="202.61674446893352" x2="233.6485173450377" y1="259" y2="259" />
<line x1="202.61674446893352" x2="202.61674446893352" y1="253" y2="265" />
<line x1="233.6485173450377" x2="233.6485173450377" y1="253" y2="265" />
</g>
</g>
<g fill="hsl(128, 100%, 40%)">
<text y="297">day 03.day 03 P2</text>
<text y="297" x="278.14390786831837" text-anchor="end">1.53 ms</text>
</g>
<g>
<title>1.53 ms ±  84 μs</title>
<rect y="303" rx="5" height="22" width="278.14390786831837" fill="hsl(128, 100%, 80%)" stroke="hsl(128, 100%, 55%)" />
<g stroke="hsl(128, 100%, 40%)"><line x1="262.8399035875925" x2="293.4479121490442" y1="314" y2="314" />
<line x1="262.8399035875925" x2="262.8399035875925" y1="308" y2="320" />
<line x1="293.4479121490442" x2="293.4479121490442" y1="308" y2="320" />
</g>
</g>
<g fill="hsl(154, 100%, 40%)">
<text y="352">day 04.day 04 P1</text>
<text y="352" x="637.002045803063" text-anchor="end">3.51 ms</text>
</g>
<g>
<title>3.51 ms ± 219 μs</title>
<rect y="358" rx="5" height="22" width="637.002045803063" fill="hsl(154, 100%, 80%)" stroke="hsl(154, 100%, 55%)" />
<g stroke="hsl(154, 100%, 40%)"><line x1="597.2395776712908" x2="676.7645139348351" y1="369" y2="369" />
<line x1="597.2395776712908" x2="597.2395776712908" y1="363" y2="375" />
<line x1="676.7645139348351" x2="676.7645139348351" y1="363" y2="375" />
</g>
</g>
<g fill="hsl(180, 100%, 40%)">
<text y="407">day 04.day 04 P2</text>
<text y="407" x="561.1671806218038" text-anchor="end">3.09 ms</text>
</g>
<g>
<title>3.09 ms ± 190 μs</title>
<rect y="413" rx="5" height="22" width="561.1671806218038" fill="hsl(180, 100%, 80%)" stroke="hsl(180, 100%, 55%)" />
<g stroke="hsl(180, 100%, 40%)"><line x1="526.6455732446442" x2="595.6887879989634" y1="424" y2="424" />
<line x1="526.6455732446442" x2="526.6455732446442" y1="418" y2="430" />
<line x1="595.6887879989634" x2="595.6887879989634" y1="418" y2="430" />
</g>
</g>
<g fill="hsl(205, 100%, 40%)">
<text y="462">day 05.day 05 P1</text>
<text y="462" x="454.67659132299445" text-anchor="end">2.51 ms</text>
</g>
<g>
<title>2.51 ms ± 219 μs</title>
<rect y="468" rx="5" height="22" width="454.67659132299445" fill="hsl(205, 100%, 80%)" stroke="hsl(205, 100%, 55%)" />
<g stroke="hsl(205, 100%, 40%)"><line x1="414.8715682109437" x2="494.48161443504523" y1="479" y2="479" />
<line x1="414.8715682109437" x2="414.8715682109437" y1="473" y2="485" />
<line x1="494.48161443504523" x2="494.48161443504523" y1="473" y2="485" />
</g>
</g>
<g fill="hsl(231, 100%, 40%)">
<text y="517">day 05.day 05 P2</text>
<text y="517" x="338.1855959876017" text-anchor="end">1.86 ms</text>
</g>
<g>
<title>1.86 ms ±  44 μs</title>
<rect y="523" rx="5" height="22" width="338.1855959876017" fill="hsl(231, 100%, 80%)" stroke="hsl(231, 100%, 55%)" />
<g stroke="hsl(231, 100%, 40%)"><line x1="330.2359480419078" x2="346.13524393329556" y1="534" y2="534" />
<line x1="330.2359480419078" x2="330.2359480419078" y1="528" y2="540" />
<line x1="346.13524393329556" x2="346.13524393329556" y1="528" y2="540" />
</g>
</g>
<text fill="hsl(257, 100%, 40%)" y="572">day 06.day 06 P1 360  μs</text>
<g>
<title>360  μs ±  33 μs</title>
<rect y="578" rx="5" height="22" width="65.34205873630937" fill="hsl(257, 100%, 80%)" stroke="hsl(257, 100%, 55%)" />
<g stroke="hsl(257, 100%, 40%)"><line x1="59.358899609438154" x2="71.32521786318058" y1="589" y2="589" />
<line x1="59.358899609438154" x2="59.358899609438154" y1="583" y2="595" />
<line x1="71.32521786318058" x2="71.32521786318058" y1="583" y2="595" />
</g>
</g>
<g fill="hsl(282, 100%, 40%)">
<text y="627">day 06.day 06 P2</text>
<text y="627" x="891.8152758786632" text-anchor="end">4.92 ms</text>
</g>
<g>
<title>4.92 ms ± 266 μs</title>
<rect y="633" rx="5" height="22" width="891.8152758786632" fill="hsl(282, 100%, 80%)" stroke="hsl(282, 100%, 55%)" />
<g stroke="hsl(282, 100%, 40%)"><line x1="843.6305517573264" x2="940.0" y1="644" y2="644" />
<line x1="843.6305517573264" x2="843.6305517573264" y1="638" y2="650" />
<line x1="940.0" x2="940.0" y1="638" y2="650" />
</g>
</g>
<text fill="hsl(308, 100%, 40%)" y="682">day 07.day 07 P1 756  μs</text>
<g>
<title>756  μs ±  32 μs</title>
<rect y="688" rx="5" height="22" width="137.11731301894352" fill="hsl(308, 100%, 80%)" stroke="hsl(308, 100%, 55%)" />
<g stroke="hsl(308, 100%, 40%)"><line x1="131.34289276319865" x2="142.8917332746884" y1="699" y2="699" />
<line x1="131.34289276319865" x2="131.34289276319865" y1="693" y2="705" />
<line x1="142.8917332746884" x2="142.8917332746884" y1="693" y2="705" />
</g>
</g>
<text fill="hsl(334, 100%, 40%)" y="737">day 07.day 07 P2 760  μs</text>
<g>
<title>760  μs ±  72 μs</title>
<rect y="743" rx="5" height="22" width="137.89055471312918" fill="hsl(334, 100%, 80%)" stroke="hsl(334, 100%, 55%)" />
<g stroke="hsl(334, 100%, 40%)"><line x1="124.82984251161712" x2="150.95126691464122" y1="754" y2="754" />
<line x1="124.82984251161712" x2="124.82984251161712" y1="748" y2="760" />
<line x1="150.95126691464122" x2="150.95126691464122" y1="748" y2="760" />
</g>
</g>
</g>
</svg>
